{"title":"Two And A Half Men Dva ipo muskarca serijal 6+prevod","uid":7115439,"size":4355881498,"categoryP":"video","categoryS":"tv_shows","magnet":"?xt=urn:btih:8bd9dba3f62dc2741459ba8b56101f466c650cc6&amp;dn=Two+And+A+Half+Men+Dva+ipo+muskarca+serijal+6%2Bprevod&amp;tr=udp%3A%2F%2Ftracker.openbittorrent.com%3A80&amp;tr=udp%3A%2F%2Fopen.demonii.com%3A1337&amp;tr=udp%3A%2F%2Ftracker.coppersurfer.tk%3A6969&amp;tr=udp%3A%2F%2Fexodus.desync.com%3A6969","seeders":0,"leechers":0,"uploader":"homerruma","files":-1,"time":1332200335,"description":"Two And A Half Men Dva ipo muskarca serijal 6+prevod\n\nDVDrip\n\nUKLJUCUJE PREVOD\n\n\nGeneral\nComplete name                    : Two.And.A.Half.Men.S06E01.DVDRip.XviD-SAiNTS.avi\nFormat                           : AVI\nFormat/Info                      : Audio Video Interleave\nFile size                        : 174 MiB\nDuration                         : 21mn 17s\nOverall bit rate                 : 1 141 Kbps\nWriting application              : VirtualDubMod 1.5.10.2 (build 2540/release)\nWriting library                  : VirtualDubMod build 2540/release\n\nVideo\nID                               : 0\nFormat                           : MPEG-4 Visual\nFormat profile                   : Advanced Simple@L5\nFormat settings, BVOP            : Yes\nFormat settings, QPel            : No\nFormat settings, GMC             : No warppoints\nFormat settings, Matrix          : Default (H.263)\nMuxing mode                      : Packed bitstream\nCodec ID                         : XVID\nCodec ID/Hint                    : XviD\nDuration                         : 21mn 17s\nBit rate                         : 994 Kbps\nWidth                            : 640 pixels\nHeight                           : 352 pixels\nDisplay aspect ratio             : 16:9\nFrame rate                       : 23.976 fps\nColor space                      : YUV\nChroma subsampling               : 4:2:0\nBit depth                        : 8 bits\nScan type                        : Progressive\nCompression mode                 : Lossy\nBits/(Pixel*Frame)               : 0.184\nStream size                      : 151 MiB (87%)\nWriting library                  : XviD 1.2.1 (UTC 2008-12-04)\n\nAudio\nID                               : 1\nFormat                           : MPEG Audio\nFormat version                   : Version 1\nFormat profile                   : Layer 3\nMode                             : Joint stereo\nMode extension                   : MS Stereo\nCodec ID                         : 55\nCodec ID/Hint                    : MP3\nDuration                         : 21mn 17s\nBit rate mode                    : Variable\nBit rate                         : 128 Kbps\nChannel(s)                       : 2 channels\nSampling rate                    : 48.0 KHz\nCompression mode                 : Lossy\nStream size                      : 20.4 MiB (12%)\nAlignment                        : Aligned on interleaves\nInterleave, duration             : 24 ms (0.58 video frame)\nInterleave, preload duration     : 137 ms\nWriting library                  : LAME3.96r\nEncoding settings                : -m j -V 4 -q 3 -lowpass 17.5 --abr 128\n","torrent":{"xt":"urn:btih:8bd9dba3f62dc2741459ba8b56101f466c650cc6","amp;dn":"Two+And+A+Half+Men+Dva+ipo+muskarca+serijal+6%2Bprevod","amp;tr":["udp%3A%2F%2Ftracker.openbittorrent.com%3A80","udp%3A%2F%2Fopen.demonii.com%3A1337","udp%3A%2F%2Ftracker.coppersurfer.tk%3A6969","udp%3A%2F%2Fexodus.desync.com%3A6969"],"infoHash":"8bd9dba3f62dc2741459ba8b56101f466c650cc6","infoHashBuffer":{"type":"Buffer","data":[139,217,219,163,246,45,194,116,20,89,186,139,86,16,31,70,108,101,12,198]},"announce":[],"urlList":[]}}